# Blender 4.3.2
# www.blender.org
mtllib navmesh.mtl
o Plane
v -1.000000 0.000000 1.000000
v 1.000000 0.000000 1.000000
v -1.000000 0.000000 -1.000000
v 1.000000 0.000000 -1.000000
v -1.000000 0.000000 -0.333333
v -1.000000 0.000000 0.333333
v -0.333333 0.000000 1.000000
v 0.333333 0.000000 1.000000
v 1.000000 0.000000 0.333333
v 1.000000 0.000000 -0.333333
v 0.333333 0.000000 -1.000000
v -0.333333 0.000000 -1.000000
v -0.333333 0.000000 0.333333
v -0.333333 0.000000 -0.333333
v 0.333333 0.000000 0.333333
v 0.333333 0.000000 -0.333333
v 1.991127 0.628380 0.333333
v 1.991127 0.628380 -0.333333
v 2.398401 0.628380 0.333333
v 2.398401 0.628380 -0.333333
v 3.575450 0.628380 0.333333
v 3.575450 0.628380 -0.333333
v 2.398401 1.179736 -1.420156
v 3.575450 1.179736 -1.420156
v 2.398401 1.179736 -1.924606
v 3.575450 1.179736 -1.924606
v -0.320706 0.246934 -1.420156
v -0.320706 0.246934 -1.924606
v -1.001508 0.246934 -1.420156
v -1.001508 0.246934 -1.924606
v -0.333333 0.000000 1.734118
v 0.333333 0.000000 1.734118
v -0.333333 0.000000 2.361604
v 0.333333 0.000000 2.361604
v 1.850784 -0.379155 1.734118
v 1.850784 -0.379155 2.361604
v 2.457764 -0.379155 1.734118
v 2.457764 -0.379155 2.361604
v 1.850784 -0.379155 -2.153836
v 2.457764 -0.379155 -2.153836
v 1.850784 -0.379155 -2.678792
v 2.457764 -0.379155 -2.678792
v 0.996209 0.000000 -2.153836
v 0.996209 0.000000 -2.678792
v 0.333333 0.000000 -2.153836
v 0.333333 0.000000 -2.678792
vn -0.0000 1.0000 -0.0000
vn -0.5355 0.8446 -0.0000
vn -0.0000 0.8918 0.4524
vn -0.3245 0.9459 -0.0000
vn -0.0000 0.8621 0.5067
vn 0.2424 0.9702 -0.0000
vn 0.4056 0.9141 -0.0000
vt 1.000000 0.666667
vt 0.666667 1.000000
vt 0.666667 0.666667
vt 0.333333 0.666667
vt 0.000000 1.000000
vt 0.000000 0.666667
vt 0.333333 1.000000
vt 0.333333 0.000000
vt 0.000000 0.333333
vt 0.000000 0.000000
vt 0.333333 0.333333
vt 0.666667 0.000000
vt 0.666667 0.333333
vt 1.000000 0.000000
vt 1.000000 0.333333
vt 1.000000 1.000000
s 0
f 10/1/1 11/2/1 16/3/1
f 14/4/1 3/5/1 5/6/1
f 16/3/1 12/7/1 14/4/1
f 7/8/1 6/9/1 1/10/1
f 13/11/1 5/6/1 6/9/1
f 8/12/1 13/11/1 7/8/1
f 15/13/1 14/4/1 13/11/1
f 2/14/1 15/13/1 8/12/1
f 9/15/1 16/3/1 15/13/1
f 9/15/2 18/1/2 10/1/2
f 17/15/1 20/1/1 18/1/1
f 19/15/1 22/1/1 20/1/1
f 22/1/3 23/1/3 20/1/3
f 24/1/1 25/1/1 23/1/1
f 25/1/4 27/1/4 23/1/4
f 28/1/1 29/1/1 27/1/1
f 12/7/5 29/1/5 3/5/5
f 7/8/1 32/12/1 8/12/1
f 31/8/1 34/12/1 32/12/1
f 34/12/6 35/12/6 32/12/6
f 36/12/1 37/12/1 35/12/1
f 37/12/1 39/12/1 35/12/1
f 40/12/1 41/12/1 39/12/1
f 41/12/7 43/12/7 39/12/7
f 44/12/1 45/12/1 43/12/1
f 43/12/1 11/2/1 4/16/1
f 10/1/1 4/16/1 11/2/1
f 14/4/1 12/7/1 3/5/1
f 16/3/1 11/2/1 12/7/1
f 7/8/1 13/11/1 6/9/1
f 13/11/1 14/4/1 5/6/1
f 8/12/1 15/13/1 13/11/1
f 15/13/1 16/3/1 14/4/1
f 2/14/1 9/15/1 15/13/1
f 9/15/1 10/1/1 16/3/1
f 9/15/2 17/15/2 18/1/2
f 17/15/1 19/15/1 20/1/1
f 19/15/1 21/15/1 22/1/1
f 22/1/3 24/1/3 23/1/3
f 24/1/1 26/1/1 25/1/1
f 25/1/4 28/1/4 27/1/4
f 28/1/1 30/1/1 29/1/1
f 12/7/5 27/1/5 29/1/5
f 7/8/1 31/8/1 32/12/1
f 31/8/1 33/8/1 34/12/1
f 34/12/6 36/12/6 35/12/6
f 36/12/1 38/12/1 37/12/1
f 37/12/1 40/12/1 39/12/1
f 40/12/1 42/12/1 41/12/1
f 41/12/7 44/12/7 43/12/7
f 44/12/1 46/12/1 45/12/1
f 43/12/1 45/12/1 11/2/1
